<svg
                    width="30"
                    height="30"
                    viewBox="0 0 30 30"
                    fill="none"
                    xmlns="http://www.w3.org/2000/svg"
                  >
                    <g clip-path="url(#clip0_86_3991)">
                      <path
                        d="M29.8593 10.3115L25.5148 7.24279V2.76041C25.4713 2.31639 25.1292 1.96001 24.6873 1.89844H5.65467C5.21283 1.96008 4.8707 2.31639 4.82715 2.76041V7.20828L0.310313 10.3114C0.131398 10.4413 0.0180829 10.6428 0 10.8631V27.2408C0.0587364 27.6903 0.412475 28.0441 0.861974 28.1028H29.48C29.8593 28.1028 29.9972 27.6546 29.9972 27.2408V10.8631C29.9972 10.6562 30.0317 10.4493 29.8593 10.3115ZM25.5148 8.89778L28.4801 10.932L25.5148 13.1732V8.89778ZM6.20633 3.27762H24.1357V14.2421L15.171 21.0001L6.20626 14.2421V3.27762H6.20633ZM4.82715 8.86333V13.2078L1.86188 10.9321L4.82715 8.86333ZM1.37918 12.3457L11.0335 19.6554L1.37918 26.172V12.3457ZM3.03423 26.7237L12.2058 20.5519L14.6538 22.4138C14.7924 22.5209 14.9614 22.5813 15.1365 22.5861C15.2744 22.5861 15.3434 22.5172 15.4813 22.4138L18.0327 20.4484L27.3078 26.7237H3.03423ZM28.618 25.9307L19.1706 19.5864L28.618 12.3457V25.9307Z"
                        fill="#EE0000"
                      />
                      <path
                        d="M9.65431 7.76004H12.7574C13.1383 7.76004 13.447 7.45131 13.447 7.07045C13.447 6.68959 13.1383 6.38086 12.7574 6.38086H9.65431C9.27345 6.38086 8.96472 6.68959 8.96472 7.07045C8.96472 7.45131 9.27345 7.76004 9.65431 7.76004Z"
                        fill="#EE0000"
                      />
                      <path
                        d="M9.65431 10.8636H20.6878C21.0687 10.8636 21.3774 10.5548 21.3774 10.174C21.3774 9.7931 21.0687 9.48438 20.6878 9.48438H9.65431C9.27345 9.48438 8.96472 9.7931 8.96472 10.174C8.96472 10.5548 9.27345 10.8636 9.65431 10.8636Z"
                        fill="#EE0000"
                      />
                      <path
                        d="M21.3773 13.2775C21.3773 12.8966 21.0686 12.5879 20.6877 12.5879H9.65431C9.27345 12.5879 8.96472 12.8966 8.96472 13.2775C8.96472 13.6583 9.27345 13.9671 9.65431 13.9671H20.6878C21.0686 13.9671 21.3773 13.6583 21.3773 13.2775Z"
                        fill="#EE0000"
                      />
                    </g>
                    <defs>
                      <clipPath id="clip0_86_3991">
                        <rect width="30" height="30" fill="white" />
                      </clipPath>
                    </defs>
                  </svg>