  <svg
      width="7"
      height="4"
      viewBox="0 0 7 4"
      fill="none"
      xmlns="http://www.w3.org/2000/svg"
      >
      <path
      fill-rule="evenodd"
      clip-rule="evenodd"
      d="M6.36119 0.466625C6.27219 0.381483 6.15155 0.333659 6.02577 0.333659C5.89998 0.333659 5.77934 0.381483 5.69034 0.466625L3.49429 2.57016L1.29823 0.466625C1.20825 0.386315 1.08925 0.342593 0.966279 0.344671C0.843312 0.346749 0.725987 0.394465 0.639022 0.477766C0.552058 0.561066 0.502244 0.673448 0.500074 0.791234C0.497904 0.909021 0.543549 1.02302 0.627391 1.1092L3.15887 3.53403C3.24787 3.61917 3.36851 3.66699 3.49429 3.66699C3.62007 3.66699 3.74071 3.61917 3.82971 3.53403L6.36119 1.1092C6.45007 1.02395 6.5 0.908398 6.5 0.787914C6.5 0.66743 6.45007 0.551873 6.36119 0.466625Z"
      fill="black"
  />
  </svg>