<svg
                  width="20"
                  height="20"
                  viewBox="0 0 20 20"
                  fill="none"
                  xmlns="http://www.w3.org/2000/svg"
                >
                  <path
                    d="M18.1857 8.49756C18.2849 9.05686 18.3343 9.62356 18.3334 10.1913C18.3334 12.7266 17.4089 14.8703 15.8 16.3213H15.8022C14.3952 17.5952 12.4612 18.3327 10.168 18.3327C7.91331 18.3327 5.75099 17.4547 4.1567 15.892C2.56241 14.3292 1.66675 12.2097 1.66675 9.9996C1.66675 7.78953 2.56241 5.66997 4.1567 4.10722C5.75099 2.54446 7.91331 1.66651 10.168 1.66651C12.2781 1.64348 14.3157 2.42047 15.8553 3.8352L13.4282 6.21429C12.5507 5.39479 11.3799 4.94591 10.168 4.96433C7.95022 4.96433 6.06613 6.43095 5.39453 8.40589C5.03907 9.44087 5.03907 10.5615 5.39453 11.5964H5.39772C6.07251 13.5682 7.9534 15.0349 10.1712 15.0349C11.3167 15.0349 12.3007 14.7474 13.0637 14.2391H13.0605C13.5036 13.9514 13.8827 13.5788 14.1747 13.1435C14.4668 12.7083 14.6658 12.2196 14.7597 11.7068H10.168V8.4986L18.1857 8.49756Z"
                    fill="black"
                  />
                </svg>