<svg
                width="21"
                height="20"
                viewBox="0 0 21 20"
                fill="none"
                xmlns="http://www.w3.org/2000/svg"
              >
                <path
                  d="M12.1726 3.58812C12.1938 3.5088 12.2304 3.43444 12.2804 3.36929C12.3304 3.30413 12.3927 3.24946 12.4638 3.2084C12.5349 3.16733 12.6134 3.14068 12.6948 3.12996C12.7762 3.11925 12.8589 3.12467 12.9382 3.14594C14.0969 3.44824 15.154 4.05394 16.0007 4.90065C16.8474 5.74736 17.4531 6.80448 17.7554 7.96312C17.7767 8.04243 17.7821 8.12515 17.7714 8.20655C17.7607 8.28796 17.734 8.36645 17.6929 8.43755C17.6519 8.50866 17.5972 8.57097 17.5321 8.62093C17.4669 8.6709 17.3925 8.70753 17.3132 8.72875C17.2604 8.74264 17.2061 8.74973 17.1515 8.74984C17.0138 8.74984 16.8799 8.70434 16.7707 8.62042C16.6615 8.5365 16.5831 8.41886 16.5476 8.28578C16.301 7.33994 15.8067 6.47696 15.1155 5.7858C14.4244 5.09464 13.5614 4.6003 12.6156 4.35375C12.5362 4.33262 12.4617 4.29604 12.3965 4.24611C12.3312 4.19618 12.2765 4.13388 12.2353 4.06277C12.1942 3.99166 12.1675 3.91314 12.1567 3.8317C12.1459 3.75025 12.1513 3.66748 12.1726 3.58812ZM11.9906 6.85375C13.0679 7.14125 13.7601 7.83344 14.0476 8.91078C14.0831 9.04386 14.1615 9.1615 14.2707 9.24542C14.3799 9.32934 14.5138 9.37484 14.6515 9.37484C14.7061 9.37473 14.7604 9.36764 14.8132 9.35375C14.8925 9.33253 14.9669 9.2959 15.0321 9.24593C15.0972 9.19597 15.1519 9.13366 15.1929 9.06255C15.234 8.99145 15.2607 8.91296 15.2714 8.83155C15.2821 8.75015 15.2767 8.66743 15.2554 8.58812C14.8554 7.09125 13.8101 6.04594 12.3132 5.64594C12.153 5.60315 11.9824 5.62574 11.8389 5.70874C11.6954 5.79174 11.5908 5.92835 11.548 6.08851C11.5052 6.24868 11.5278 6.41928 11.6108 6.56279C11.6938 6.7063 11.8304 6.81096 11.9906 6.85375ZM18.3921 14.303C18.2528 15.3616 17.7329 16.3333 16.9295 17.0366C16.1262 17.7399 15.0942 18.1268 14.0265 18.1248C7.82337 18.1248 2.7765 13.078 2.7765 6.87484C2.77458 5.8071 3.16141 4.77517 3.86473 3.97179C4.56804 3.16841 5.53975 2.64852 6.59837 2.50922C6.86607 2.47653 7.13716 2.5313 7.37117 2.66534C7.60519 2.79939 7.78957 3.00552 7.89681 3.25297L9.54681 6.93656V6.94594C9.62891 7.13535 9.66281 7.34215 9.6455 7.54787C9.62819 7.75359 9.56019 7.95181 9.44759 8.12484C9.43353 8.14594 9.41868 8.16547 9.40306 8.185L7.7765 10.1131C8.36165 11.3022 9.6054 12.535 10.8101 13.1217L12.7117 11.5037C12.7303 11.488 12.7499 11.4734 12.7702 11.46C12.9431 11.3447 13.142 11.2743 13.349 11.2552C13.5559 11.2361 13.7643 11.2689 13.9554 11.3506L13.9656 11.3553L17.646 13.0045C17.8939 13.1114 18.1006 13.2956 18.235 13.5297C18.3695 13.7637 18.4246 14.035 18.3921 14.303ZM17.1515 14.1467H17.1429L13.471 12.5022L11.5687 14.1202C11.5503 14.1358 11.531 14.1505 11.5109 14.1639C11.331 14.2839 11.1231 14.3552 10.9074 14.3708C10.6917 14.3864 10.4757 14.3458 10.2804 14.253C8.81712 13.5459 7.35853 12.0983 6.65071 10.6506C6.55699 10.4568 6.51493 10.242 6.52862 10.0271C6.5423 9.81218 6.61127 9.60447 6.72884 9.42406C6.74206 9.40285 6.75695 9.38274 6.77337 9.3639L8.4015 7.43344L6.76087 3.76156C6.76056 3.75844 6.76056 3.7553 6.76087 3.75219C6.00326 3.85101 5.30765 4.22263 4.80432 4.79743C4.30099 5.37224 4.02445 6.11081 4.0265 6.87484C4.02939 9.52612 5.08389 12.068 6.95863 13.9427C8.83336 15.8174 11.3752 16.8719 14.0265 16.8748C14.7901 16.8775 15.5284 16.6019 16.1036 16.0997C16.6787 15.5974 17.0512 14.9029 17.1515 14.1459V14.1467Z"
                  fill="#EE0000"
                />
              </svg>