<svg
                  width="20"
                  height="20"
                  viewBox="0 0 20 20"
                  fill="none"
                  xmlns="http://www.w3.org/2000/svg"
                >
                  <g clip-path="url(#clip0_86_5292)">
                    <path
                      d="M14.1667 1.66602H5.83341C3.53223 1.66602 1.66675 3.5315 1.66675 5.83268V14.166C1.66675 16.4672 3.53223 18.3327 5.83341 18.3327H14.1667C16.4679 18.3327 18.3334 16.4672 18.3334 14.166V5.83268C18.3334 3.5315 16.4679 1.66602 14.1667 1.66602Z"
                      stroke="black"
                      stroke-width="2"
                      stroke-linecap="round"
                      stroke-linejoin="round"
                    />
                    <path
                      d="M14.5835 5.41602H14.5918M13.3335 9.47435C13.4363 10.1679 13.3179 10.8762 12.995 11.4985C12.672 12.1209 12.1611 12.6255 11.5349 12.9407C10.9086 13.256 10.1989 13.3657 9.50665 13.2543C8.81443 13.1429 8.17496 12.8161 7.6792 12.3203C7.18343 11.8245 6.85661 11.1851 6.74522 10.4929C6.63383 9.80064 6.74355 9.09093 7.05877 8.46466C7.37399 7.83839 7.87865 7.32747 8.50098 7.00455C9.12332 6.68163 9.83162 6.56317 10.5252 6.66602C11.2326 6.77092 11.8875 7.10057 12.3932 7.60627C12.8989 8.11197 13.2286 8.76691 13.3335 9.47435Z"
                      stroke="black"
                      stroke-width="2"
                      stroke-linecap="round"
                      stroke-linejoin="round"
                    />
                  </g>
                  <defs>
                    <clipPath id="clip0_86_5292">
                      <rect width="20" height="20" fill="white" />
                    </clipPath>
                  </defs>
                </svg>