<svg
                      width="31"
                      height="31"
                      viewBox="0 0 31 31"
                      fill="none"
                      xmlns="http://www.w3.org/2000/svg"
                    >
                      <g clip-path="url(#clip0_192_2808)">
                        <path
                          d="M15.5009 14.8715C18.2126 14.8715 20.4188 12.6657 20.4188 9.9543C20.4188 7.24293 18.2126 5.03711 15.5009 5.03711C12.7892 5.03711 10.583 7.24293 10.583 9.9543C10.583 12.6657 12.7892 14.8715 15.5009 14.8715ZM15.5009 6.79469C17.2434 6.79469 18.661 8.21213 18.661 9.9543C18.661 11.6965 17.2434 13.114 15.5009 13.114C13.7584 13.114 12.3408 11.6965 12.3408 9.9543C12.3408 8.21213 13.7584 6.79469 15.5009 6.79469Z"
                          fill="#EE0000"
                        ></path>
                        <path
                          d="M10.1453 18.7889C11.4775 20.5923 10.9423 19.891 14.7793 25.3692C15.128 25.869 15.8696 25.8714 16.2204 25.3699C20.0747 19.8657 19.5444 20.5629 20.8549 18.7889C22.1823 16.9917 23.555 15.1333 24.3073 12.9556C25.396 9.80322 24.9254 6.6841 22.9822 4.17277C22.9822 4.17277 22.9822 4.17272 22.9821 4.17272C21.2021 1.87297 18.4051 0.5 15.5001 0.5C12.5951 0.5 9.79804 1.87297 8.01802 4.17283C6.07488 6.68416 5.60425 9.80334 6.69304 12.9557C7.44515 15.1334 8.81788 16.9917 10.1453 18.7889ZM9.40822 5.24838C10.8577 3.37566 13.1351 2.25758 15.5001 2.25758C17.8651 2.25758 20.1425 3.37566 21.592 5.24838L21.5918 5.24832C23.1602 7.2752 23.5344 9.80867 22.6457 12.382C21.9813 14.3055 20.6898 16.0539 19.4409 17.7447C18.4684 19.0612 18.7595 18.6585 15.5001 23.3306C12.2441 18.6632 12.5314 19.0607 11.5593 17.7447C10.3104 16.0539 9.01892 14.3055 8.35452 12.382C7.46577 9.80861 7.83995 7.2752 9.40822 5.24838Z"
                          fill="#EE0000"
                        ></path>
                        <path
                          d="M10.8676 22.599C10.6084 22.1888 10.0655 22.0661 9.65516 22.3254L7.15614 23.9037C6.61098 24.248 6.61045 25.045 7.15614 25.3897L15.0311 30.3636C15.3178 30.5447 15.6832 30.5446 15.9699 30.3636L23.8449 25.3897C24.3901 25.0454 24.3906 24.2484 23.8449 23.9037L21.3458 22.3254C20.9353 22.0662 20.3926 22.1888 20.1334 22.599C19.8741 23.0094 19.9967 23.5521 20.4071 23.8113L21.7298 24.6467L15.5005 28.5812L9.27119 24.6467L10.5939 23.8113C11.0043 23.5522 11.1268 23.0094 10.8676 22.599Z"
                          fill="#EE0000"
                        ></path>
                      </g>
                      <defs>
                        <clipPath id="clip0_192_2808">
                          <rect
                            width="30"
                            height="30"
                            fill="white"
                            transform="translate(0.5 0.5)"
                          ></rect>
                        </clipPath>
                      </defs>
                    </svg>