<svg
              width="20"
              height="20"
              viewBox="0 0 20 20"
              fill="none"
              xmlns="http://www.w3.org/2000/svg"
            >
              <g clip-path="url(#clip0_192_6605)">
                <path
                  d="M10.0004 9.5807C11.8082 9.5807 13.279 8.11012 13.279 6.30254C13.279 4.49496 11.8082 3.02441 10.0004 3.02441C8.19258 3.02441 6.7218 4.49496 6.7218 6.30254C6.7218 8.11012 8.19258 9.5807 10.0004 9.5807ZM10.0004 4.19613C11.162 4.19613 12.1071 5.14109 12.1071 6.30254C12.1071 7.46402 11.1621 8.40898 10.0004 8.40898C8.83872 8.40898 7.89368 7.46402 7.89368 6.30254C7.89368 5.14109 8.83876 4.19613 10.0004 4.19613Z"
                  fill="white"
                />
                <path
                  d="M6.43016 12.1926C7.31824 13.3948 6.96144 12.9273 9.51945 16.5795C9.75195 16.9127 10.2464 16.9143 10.4802 16.58C13.0498 12.9105 12.6962 13.3752 13.5698 12.1926C14.4548 10.9945 15.37 9.75555 15.8714 8.30375C16.5973 6.20215 16.2835 4.12273 14.9881 2.44852C14.988 2.44852 14.988 2.44848 14.988 2.44848C13.8014 0.915313 11.9367 0 10 0C8.06332 0 6.19863 0.915313 5.01195 2.44855C3.71652 4.12277 3.40277 6.20223 4.12863 8.30383C4.63004 9.75559 5.54519 10.9945 6.43016 12.1926ZM5.93875 3.16559C6.90508 1.91711 8.42332 1.17172 10 1.17172C11.5767 1.17172 13.0949 1.91711 14.0612 3.16559L14.0612 3.16555C15.1068 4.5168 15.3562 6.20578 14.7637 7.92133C14.3208 9.20367 13.4598 10.3693 12.6272 11.4965C11.9789 12.3741 12.1729 12.1057 10 15.2204C7.82934 12.1088 8.0209 12.3738 7.37281 11.4965C6.5402 10.3693 5.67922 9.20363 5.23629 7.92133C4.64379 6.20574 4.89324 4.5168 5.93875 3.16559Z"
                  fill="white"
                />
                <path
                  d="M6.9118 14.733C6.73899 14.4595 6.37711 14.3777 6.10352 14.5506L4.4375 15.6028C4.07407 15.8324 4.07372 16.3637 4.4375 16.5934L9.6875 19.9094C9.87864 20.0301 10.1222 20.0301 10.3133 19.9094L15.5633 16.5934C15.9268 16.3639 15.9271 15.8326 15.5633 15.6028L13.8973 14.5506C13.6236 14.3778 13.2618 14.4595 13.089 14.733C12.9162 15.0066 12.9979 15.3684 13.2715 15.5412L14.1533 16.0981L10.0004 18.7211L5.84754 16.0981L6.72934 15.5412C7.00293 15.3684 7.08461 15.0066 6.9118 14.733Z"
                  fill="white"
                />
              </g>
              <defs>
                <clipPath id="clip0_192_6605">
                  <rect width="20" height="20" fill="white" />
                </clipPath>
              </defs>
            </svg>