<svg
                width="24"
                height="24"
                viewBox="0 0 24 24"
                fill="none"
                xmlns="http://www.w3.org/2000/svg"
              >
                <path
                  d="M5.01886 1.32592L5.03969 1.30837L5.06692 1.30828L11.7091 1.28484C15.3579 1.27079 18.4795 1.26603 18.6374 1.27559L18.6386 1.27568C18.823 1.28987 18.9839 1.32817 19.0781 1.40436C19.1481 1.45957 19.9028 2.09247 20.7578 2.81667L20.7579 2.81674L22.3142 4.13861L22.3407 4.16111L22.3406 4.19586L22.3313 12.7037V12.7037L22.3172 21.2115L22.3172 21.2284L22.3099 21.2437L22.1602 21.5571C22.1601 21.5572 22.1601 21.5573 22.16 21.5574C21.9604 21.9857 21.6103 22.3358 21.1821 22.5355C21.1819 22.5355 21.1818 22.5356 21.1817 22.5356L20.8683 22.6853L20.853 22.6926L20.8361 22.6926L12.0704 22.7067L12.0704 22.7067C7.79801 22.7114 5.6049 22.7137 4.44721 22.7038C3.29605 22.6939 3.15897 22.6724 3.0135 22.6231C2.47677 22.4425 2.07747 22.071 1.82118 21.5199L1.69006 21.2436L1.68284 21.2284L1.68281 21.2115L1.66875 12.7037L1.66875 12.7037L1.65938 4.19586L1.65934 4.161L1.68597 4.13849L3.35003 2.73224L3.35011 2.73217L5.01886 1.32592ZM2.40016 21.3254L2.40017 21.3254L2.40085 21.3267C2.55763 21.6268 2.75242 21.8171 3.04291 21.9646L3.31276 22.0973H12H20.6872L20.9563 21.965C20.9565 21.9649 20.9567 21.9648 20.9569 21.9647C21.2617 21.8077 21.4693 21.5992 21.6069 21.3018L21.6985 21.1013L21.7125 12.8301V12.83L21.7218 4.62234H12H2.27821L2.2875 12.8535L2.2875 12.8535L2.30153 21.1453L2.40016 21.3254ZM2.83301 3.98076L7.31264 3.99421C9.89067 3.9989 14.1093 3.9989 16.6921 3.99421L21.18 3.98076L20.0141 2.99686L20.0141 2.99684L18.7179 1.90359H12H5.28678L3.99076 2.99667L3.99054 2.99686L2.83301 3.98076Z"
                  fill="white"
                  stroke="white"
                  stroke-width="0.15"
                />
                <path
                  d="M17.7087 13.5031L17.7084 13.5035C17.6365 13.6062 17.447 13.7897 17.2849 13.9137C17.1523 14.016 16.345 14.655 15.3512 15.4416C15.1168 15.6271 14.872 15.8209 14.6232 16.0177C13.3262 17.0441 12.191 17.9402 12.0933 18.0077M17.7087 13.5031L12.0501 17.9464M17.7087 13.5031C17.8599 13.2842 17.8767 13.0344 17.7606 12.8076L17.7605 12.8073C17.7547 12.7961 17.7467 12.787 17.7429 12.7827C17.7378 12.7768 17.7316 12.7705 17.7249 12.7638C17.7115 12.7505 17.6934 12.7336 17.6715 12.7139C17.6275 12.6742 17.5655 12.6204 17.4884 12.5549C17.3341 12.4238 17.1175 12.244 16.8591 12.0319C16.342 11.6077 15.6564 11.0533 14.964 10.4986C14.2716 9.94392 13.5721 9.3887 13.0276 8.96271C12.7553 8.74974 12.5216 8.5689 12.3466 8.43651C12.2592 8.37035 12.1862 8.31605 12.1302 8.27581C12.0767 8.23733 12.0343 8.20828 12.0101 8.19569C11.9006 8.13711 11.769 8.11174 11.6452 8.11559C11.5223 8.11942 11.3982 8.15241 11.3073 8.22034M17.7087 13.5031L11.3073 8.22034M12.0933 18.0077C12.093 18.0079 12.0927 18.0081 12.0924 18.0083L12.0501 17.9464M12.0933 18.0077C12.0935 18.0076 12.0937 18.0074 12.094 18.0073L12.0501 17.9464M12.0933 18.0077C11.9788 18.09 11.8351 18.1324 11.6959 18.1362C11.557 18.1401 11.4153 18.1058 11.3074 18.0257M12.0501 17.9464C11.8485 18.0917 11.5345 18.1011 11.3517 17.9652M11.3074 18.0257C11.3076 18.0258 11.3077 18.0259 11.3079 18.0261L11.3517 17.9652M11.3074 18.0257C11.3072 18.0256 11.3071 18.0255 11.3069 18.0254L11.3517 17.9652M11.3074 18.0257L11.3517 17.9652M6.2628 11.2227C6.23736 11.263 6.21662 11.3037 6.20143 11.3682C6.18686 11.4301 6.17769 11.5127 6.17148 11.6368C6.15906 11.8853 6.15791 12.3178 6.15791 13.123C6.15791 13.9281 6.15906 14.3607 6.17148 14.6091C6.17769 14.7333 6.18686 14.8158 6.20143 14.8778C6.21662 14.9423 6.23736 14.983 6.2628 15.0233L8.82979 10.9292C10.4563 10.9199 10.9954 10.9011 11.0235 10.8589M6.2628 11.2227C6.26296 11.2224 6.26313 11.2222 6.2633 11.2219L6.32666 11.262L6.26235 11.2235C6.2625 11.2232 6.26265 11.223 6.2628 11.2227ZM6.2628 11.2227C6.26849 11.2132 6.2741 11.2037 6.2797 11.1942C6.31843 11.1284 6.35648 11.0638 6.41793 11.0149C6.49111 10.9567 6.59014 10.9243 6.74563 10.9035C7.0369 10.8646 7.57354 10.8615 8.63521 10.8554C8.69806 10.855 8.76276 10.8546 8.82934 10.8542H8.82935C9.64267 10.8495 10.1832 10.8425 10.5236 10.8314C10.6941 10.8259 10.813 10.8193 10.8903 10.8117C10.9196 10.8089 10.9416 10.806 10.9577 10.8032M10.9577 10.8032C10.9571 10.8079 10.9566 10.8121 10.9561 10.816C10.9551 10.824 10.9542 10.8292 10.9536 10.8321C10.9533 10.8337 10.9531 10.8344 10.9531 10.8343C10.9531 10.8339 10.9545 10.8285 10.9584 10.8217L11.0235 10.8589M10.9577 10.8032C10.9592 10.7886 10.9609 10.7702 10.9625 10.7478C10.9668 10.6888 10.9709 10.6066 10.9744 10.5065C10.9814 10.3065 10.986 10.0379 10.986 9.74798C10.986 9.17465 10.9915 8.84707 11.0326 8.63949C11.0536 8.53319 11.0847 8.45322 11.1322 8.38577C11.1791 8.31917 11.2386 8.26976 11.3073 8.22034M10.9577 10.8032C10.963 10.8023 10.9676 10.8013 10.9717 10.8004C10.9756 10.7996 10.9785 10.7988 10.9805 10.7982C10.9827 10.7976 10.9835 10.7973 10.9833 10.7973C10.9832 10.7973 10.9809 10.7983 10.9776 10.8006C10.9744 10.8026 10.9675 10.8078 10.9611 10.8173L11.0235 10.8589M11.0235 10.8589L11.3073 8.22034M10.9577 15.4428C10.963 15.4437 10.9676 15.4446 10.9717 15.4455C10.9756 15.4464 10.9785 15.4471 10.9805 15.4477C10.9811 15.4479 10.9816 15.4481 10.982 15.4482C10.983 15.4485 10.9834 15.4487 10.9833 15.4486C10.9832 15.4486 10.9809 15.4477 10.9776 15.4454C10.9744 15.4433 10.9675 15.4381 10.9611 15.4286L11.0235 15.387L10.9584 15.4243C10.9544 15.4173 10.9531 15.4117 10.9531 15.4117C10.9531 15.4117 10.9533 15.4124 10.9536 15.4139C10.9542 15.4168 10.9551 15.422 10.9561 15.43C10.9566 15.4338 10.9572 15.4381 10.9577 15.4428ZM11.2775 11.3593L11.2775 11.3593L11.2784 11.3588C11.3479 11.3161 11.4092 11.2714 11.4576 11.206C11.5062 11.1403 11.5374 11.0598 11.5583 10.9517C11.5993 10.7402 11.6048 10.3986 11.6048 9.79954C11.6048 9.29637 11.606 9.0293 11.6169 8.88222C11.6224 8.80765 11.63 8.77245 11.637 8.75494C11.6399 8.74776 11.6418 8.7457 11.6421 8.74547L11.6421 8.74546L11.6421 8.74545C11.6424 8.74516 11.6435 8.74391 11.6485 8.74121C11.6719 8.72966 11.6858 8.72796 11.6983 8.72958C11.7132 8.73152 11.7357 8.73955 11.7735 8.76465C11.8376 8.8096 13.0926 9.79861 14.5675 10.9692C15.4651 11.6817 16.135 12.2204 16.5803 12.5879C16.8031 12.7717 16.9691 12.9122 17.0791 13.01C17.1343 13.059 17.1744 13.0965 17.2004 13.1228C17.2008 13.1233 17.2013 13.1237 17.2017 13.1241C17.1783 13.1486 17.1423 13.1829 17.093 13.2275C16.9927 13.318 16.8413 13.4471 16.6382 13.6154C16.2322 13.9518 15.6222 14.4424 14.8066 15.0892L14.8066 15.0892C14.6657 15.201 14.5312 15.3078 14.4028 15.4098C13.0387 16.4925 12.3576 17.0332 12.0062 17.297C11.8112 17.4434 11.7251 17.4987 11.6826 17.5164C11.6782 17.5183 11.6749 17.5194 11.6726 17.5201C11.6725 17.5201 11.6725 17.5201 11.6724 17.52C11.6687 17.5179 11.6609 17.5134 11.6541 17.5099C11.6433 17.5038 11.6417 17.5018 11.6381 17.4936C11.6312 17.4776 11.6232 17.4446 11.6174 17.371C11.606 17.2259 11.6048 16.9591 11.6048 16.4464C11.6048 15.8474 11.5993 15.5058 11.5583 15.2943C11.5374 15.1862 11.5062 15.1056 11.4576 15.0399C11.4092 14.9746 11.3479 14.9299 11.2784 14.8872L11.2784 14.8872L11.2775 14.8866C11.2353 14.8616 11.1945 14.8407 11.1234 14.8255C11.0561 14.8112 10.9622 14.8021 10.8134 14.7959C10.5149 14.7835 9.97728 14.7824 8.94697 14.7824C8.15005 14.7824 7.61422 14.7788 7.27253 14.7701C7.10147 14.7657 6.98047 14.76 6.90018 14.753C6.86349 14.7498 6.83688 14.7464 6.81856 14.7431C6.81838 14.7419 6.81819 14.7408 6.818 14.7395C6.81409 14.7146 6.81022 14.6783 6.80653 14.6314C6.7992 14.5379 6.79302 14.4076 6.78805 14.2519C6.77812 13.9408 6.77314 13.5321 6.77314 13.123C6.77314 12.7139 6.77812 12.3052 6.78805 11.9941C6.79302 11.8384 6.7992 11.708 6.80653 11.6145C6.81022 11.5676 6.81409 11.5314 6.818 11.5064C6.81819 11.5052 6.81838 11.504 6.81856 11.5029C6.83688 11.4996 6.86349 11.4962 6.90018 11.493C6.98047 11.4859 7.10147 11.4803 7.27253 11.4759C7.61422 11.4671 8.15005 11.4636 8.94697 11.4636C9.97728 11.4636 10.5149 11.4624 10.8134 11.4501C10.9622 11.4439 11.0561 11.4348 11.1234 11.4204C11.1945 11.4053 11.2353 11.3844 11.2775 11.3593Z"
                  fill="white"
                  stroke="white"
                  stroke-width="0.15"
                />
              </svg>